<svg xmlns="http://www.w3.org/2000/svg" viewBox="0 0 120 120" fill="none">
  <defs>
    <linearGradient id="g1" x1="0" y1="0" x2="1" y2="1">
      <stop offset="0%" stop-color="#6366f1"/>
      <stop offset="100%" stop-color="#8b5cf6"/>
    </linearGradient>
    <linearGradient id="g2" x1="0" y1="0" x2="1" y2="1">
      <stop offset="0%" stop-color="#818cf8"/>
      <stop offset="100%" stop-color="#a78bfa"/>
    </linearGradient>
  </defs>
  <rect width="120" height="120" rx="28" fill="url(#g1)"/>
  <!-- Book base -->
  <path d="M30 82V42c0-3.3 2.7-6 6-6h20l4 6h24c3.3 0 6 2.7 6 6v34c0 3.3-2.7 6-6 6H36c-3.3 0-6-2.7-6-6z" fill="white" opacity="0.2"/>
  <!-- Graduation cap -->
  <path d="M60 30L28 48l32 18 32-18L60 30z" fill="white"/>
  <path d="M44 56v16c0 0 7 10 16 10s16-10 16-10V56L60 66 44 56z" fill="url(#g2)"/>
  <rect x="88" y="48" width="3" height="28" rx="1.5" fill="white" opacity="0.8"/>
  <circle cx="89.5" cy="78" r="4" fill="#fbbf24"/>
  <!-- Subtle sparkle -->
  <circle cx="36" cy="34" r="2" fill="white" opacity="0.5"/>
  <circle cx="86" cy="32" r="1.5" fill="white" opacity="0.4"/>
</svg>
